M48
METRIC,LZ,000.000
;FILE_FORMAT=3:3
;TYPE=PLATED
;Layer: PTH_Through
;EasyEDA v6.5.48, 2025-01-21 17:41:51
;c25b6b3bb0ea45fba8c4304eea8249b9,6739810af5ca4796b4382bb4120ee57b,10
;Gerber Generator version 0.2
;Holesize 1 = 0.306 mm
T01C0.306
;Holesize 2 = 0.701 mm
T02C0.701
;Holesize 3 = 0.901 mm
T03C0.901
;Holesize 4 = 0.915 mm
T04C0.915
;Holesize 5 = 1.101 mm
T05C1.101
%
G05
G90
T01
X052997Y027051
X052778Y038417
X037851Y036283
X031459Y022570
X053228Y025136
X036437Y014347
X042115Y036754
X034105Y047825
X030521Y026360
X027631Y032920
X027260Y018910
X028531Y012677
X053083Y021974
T02
X028234Y008659
X028234Y010056
X028234Y011453
X038394Y008659
X038394Y010056
X038394Y011453
X043474Y008659
X043474Y010056
X043474Y011453
X048554Y008659
X048554Y010056
X048554Y011453
X053634Y008659
X053634Y010056
X053634Y011453
X033314Y008659
X033314Y010056
X033314Y011453
T03
X010030Y011072
X015030Y011072
T04
X044450Y053467
X052070Y053467
X029337Y053340
X036957Y053340
X013843Y052705
X021463Y052705
X071374Y015113
X071374Y023241
X071374Y031369
T05
X024003Y041783
X021463Y041783
X021463Y034163
X024003Y034163
X018923Y041783
X016383Y041783
X018923Y034163
X016383Y034163
M30
