G04 Layer: BottomLayer*
G04 EasyEDA v6.5.48, 2025-01-21 17:41:51*
G04 c25b6b3bb0ea45fba8c4304eea8249b9,6739810af5ca4796b4382bb4120ee57b,10*
G04 Gerber Generator version 0.2*
G04 Scale: 100 percent, Rotated: No, Reflected: No *
G04 Dimensions in millimeters *
G04 leading zeros omitted , absolute positions ,4 integer and 5 decimal *
%FSLAX45Y45*%
%MOMM*%

%ADD10C,0.5800*%
%ADD11C,0.2540*%
%ADD12C,1.5240*%
%ADD13O,1.5999968X0.8999982*%
%ADD14R,4.0000X3.0000*%
%ADD15C,1.8000*%
%ADD16C,0.9000*%
%ADD17C,0.6100*%

%LPD*%
D10*
X5207002Y2705100D02*
G01*
X5299687Y2705100D01*
X5207002Y5346700D02*
G01*
X5173322Y5313019D01*
X5173322Y2738780D01*
X5207002Y2705100D01*
X4855390Y1145286D02*
G01*
X4855390Y2353487D01*
X5207002Y2705100D01*
X5363390Y865886D02*
G01*
X5306849Y865886D01*
X5218686Y954049D01*
X5218686Y1960016D01*
X5412818Y2154148D01*
X5412818Y3706698D01*
X5277792Y3841724D01*
X4347390Y865886D02*
G01*
X4288767Y865886D01*
X4155950Y998702D01*
X4155950Y3257473D01*
X3785110Y3628313D01*
D11*
X2823390Y1005586D02*
G01*
X2801724Y1005586D01*
X2685366Y889228D01*
X2685366Y821181D01*
X2733296Y773252D01*
X2901419Y773252D01*
X3145868Y1017701D01*
X3145868Y2257044D01*
X4855390Y1005586D02*
G01*
X4877539Y1005586D01*
X4995369Y1123416D01*
X4995369Y2186152D01*
X5322801Y2513584D01*
X4479546Y777722D02*
G01*
X4248660Y777722D01*
X4003931Y1022451D01*
X4003931Y1143482D01*
X3712720Y1434693D01*
X3643657Y1434693D01*
X4479546Y777722D02*
G01*
X5439691Y777722D01*
X5498569Y836599D01*
X5498569Y903833D01*
X5396816Y1005586D01*
X5363390Y1005586D01*
X4479546Y777722D02*
G01*
X4479546Y3407384D01*
X4211525Y3675405D01*
D10*
X3695702Y5334000D02*
G01*
X3306015Y4944313D01*
X3306015Y1170660D01*
X3331390Y1145286D01*
X3410485Y4782515D02*
G01*
X3410485Y1540560D01*
X3805760Y1145286D01*
X3839390Y1145286D01*
D11*
X3052066Y2635961D02*
G01*
X3206650Y2481376D01*
X3206650Y821817D01*
X3250745Y777722D01*
X3921737Y777722D01*
X3963139Y819124D01*
X3963139Y901877D01*
X3859430Y1005586D01*
X3839390Y1005586D01*
X2725981Y1891004D02*
G01*
X2725981Y3254933D01*
X2763090Y3292043D01*
D10*
X2146302Y4178300D02*
G01*
X2853108Y3471494D01*
X2853108Y1267663D01*
X5308348Y2197430D02*
G01*
X5093845Y1982927D01*
X5093845Y1053490D01*
X4906241Y865886D01*
X4855390Y865886D01*
X3331390Y865886D02*
G01*
X3839390Y865886D01*
X4445002Y5346700D02*
G01*
X4311601Y5480100D01*
X3645664Y5480100D01*
X2962099Y4796536D01*
X2962099Y1485442D01*
X2974698Y1472844D01*
X2974698Y963117D01*
X2877466Y865886D01*
X2823390Y865886D01*
X2823390Y1145286D02*
G01*
X2146302Y1822373D01*
X2146302Y3416300D01*
X7137402Y3136900D02*
G01*
X7137402Y2927451D01*
X7137402Y2927451D02*
G01*
X5363390Y1153439D01*
X5363390Y1145286D01*
D12*
G01*
X1002995Y1107186D03*
G01*
X1502994Y1107186D03*
G01*
X4445000Y5346700D03*
G01*
X5207000Y5346700D03*
G01*
X2933700Y5334000D03*
G01*
X3695700Y5334000D03*
G01*
X1384300Y5270500D03*
G01*
X2146300Y5270500D03*
D13*
G01*
X2823387Y865886D03*
G01*
X2823387Y1005586D03*
G01*
X2823387Y1145286D03*
G01*
X3839387Y865886D03*
G01*
X3839387Y1005586D03*
G01*
X3839387Y1145286D03*
G01*
X4347387Y865886D03*
G01*
X4347387Y1005586D03*
G01*
X4347387Y1145286D03*
G01*
X4855387Y865886D03*
G01*
X4855387Y1005586D03*
G01*
X4855387Y1145286D03*
G01*
X5363387Y865886D03*
G01*
X5363387Y1005586D03*
G01*
X5363387Y1145286D03*
G01*
X3331387Y865886D03*
G01*
X3331387Y1005586D03*
G01*
X3331387Y1145286D03*
D14*
G01*
X7137400Y1511300D03*
G01*
X7137400Y2324100D03*
G01*
X7137400Y3136900D03*
D15*
G01*
X2400300Y4178300D03*
G01*
X2146300Y4178300D03*
G01*
X2146300Y3416300D03*
G01*
X2400300Y3416300D03*
G01*
X1892300Y4178300D03*
G01*
X1638300Y4178300D03*
G01*
X1892300Y3416300D03*
G01*
X1638300Y3416300D03*
D16*
G01*
X5299684Y2705100D03*
G01*
X5277789Y3841724D03*
G01*
X3785108Y3628313D03*
D17*
G01*
X3145866Y2257044D03*
G01*
X5322798Y2513584D03*
G01*
X3643655Y1434693D03*
G01*
X4211523Y3675405D03*
D16*
G01*
X3410483Y4782515D03*
D17*
G01*
X3052063Y2635961D03*
G01*
X2763088Y3292043D03*
G01*
X2725978Y1891004D03*
D16*
G01*
X2853105Y1267663D03*
G01*
X5308345Y2197430D03*
M02*
