G04 Layer: TopSolderMaskLayer*
G04 EasyEDA v6.5.48, 2025-01-21 17:41:51*
G04 c25b6b3bb0ea45fba8c4304eea8249b9,6739810af5ca4796b4382bb4120ee57b,10*
G04 Gerber Generator version 0.2*
G04 Scale: 100 percent, Rotated: No, Reflected: No *
G04 Dimensions in millimeters *
G04 leading zeros omitted , absolute positions ,4 integer and 5 decimal *
%FSLAX45Y45*%
%MOMM*%

%AMMACRO1*4,1,8,-0.421,-0.5008,-0.4507,-0.4708,-0.4507,0.471,-0.421,0.5008,0.4208,0.5008,0.4507,0.471,0.4507,-0.4708,0.4208,-0.5008,-0.421,-0.5008,0*%
%AMMACRO2*4,1,8,-3.0211,-1.0508,-3.0508,-1.0208,-3.0508,1.0211,-3.0211,1.0508,3.0208,1.0508,3.0508,1.0211,3.0508,-1.0208,3.0208,-1.0508,-3.0211,-1.0508,0*%
%AMMACRO3*4,1,8,-0.5461,-1.2832,-0.5758,-1.2532,-0.5758,1.2535,-0.5461,1.2832,0.5458,1.2832,0.5758,1.2535,0.5758,-1.2532,0.5458,-1.2832,-0.5461,-1.2832,0*%
%AMMACRO4*4,1,8,-1.7911,-1.2832,-1.8208,-1.2532,-1.8208,1.2535,-1.7911,1.2832,1.7908,1.2832,1.8208,1.2535,1.8208,-1.2532,1.7908,-1.2832,-1.7911,-1.2832,0*%
%AMMACRO5*4,1,8,-1.2535,-0.5758,-1.2832,-0.5458,-1.2832,0.5461,-1.2535,0.5758,1.2532,0.5758,1.2832,0.5461,1.2832,-0.5458,1.2532,-0.5758,-1.2535,-0.5758,0*%
%AMMACRO6*4,1,8,-1.2535,-1.8208,-1.2832,-1.7908,-1.2832,1.7911,-1.2535,1.8208,1.2532,1.8208,1.2832,1.7911,1.2832,-1.7908,1.2532,-1.8208,-1.2535,-1.8208,0*%
%AMMACRO7*4,1,8,-2.0211,-1.5508,-2.0508,-1.5208,-2.0508,1.5211,-2.0211,1.5508,2.0208,1.5508,2.0508,1.5211,2.0508,-1.5208,2.0208,-1.5508,-2.0211,-1.5508,0*%
%AMMACRO8*4,1,8,-1.0208,-0.55,-1.05,-0.5206,-1.05,0.5208,-1.0208,0.55,1.0206,0.55,1.05,0.5208,1.05,-0.5206,1.0206,-0.55,-1.0208,-0.55,0*%
%ADD10C,1.6256*%
%ADD11MACRO1*%
%ADD12MACRO2*%
%ADD13O,1.6999966X0.9999979999999999*%
%ADD14MACRO3*%
%ADD15MACRO4*%
%ADD16MACRO5*%
%ADD17MACRO6*%
%ADD18O,1.8466053999999998X0.6615938*%
%ADD19MACRO7*%
%ADD20C,1.9016*%
%ADD21MACRO8*%

%LPD*%
D10*
G01*
X1002995Y1107186D03*
G01*
X1502994Y1107186D03*
D11*
G01*
X5673991Y1970798D03*
G01*
X5533986Y1970798D03*
D10*
G01*
X4445000Y5346700D03*
G01*
X5207000Y5346700D03*
G01*
X2933700Y5334000D03*
G01*
X3695700Y5334000D03*
G01*
X1384300Y5270500D03*
G01*
X2146300Y5270500D03*
D12*
G01*
X1219200Y2312289D03*
G01*
X1219200Y2742310D03*
D13*
G01*
X2823387Y865886D03*
G01*
X2823387Y1005586D03*
G01*
X2823387Y1145286D03*
G01*
X3839387Y865886D03*
G01*
X3839387Y1005586D03*
G01*
X3839387Y1145286D03*
G01*
X4347387Y865886D03*
G01*
X4347387Y1005586D03*
G01*
X4347387Y1145286D03*
G01*
X4855387Y865886D03*
G01*
X4855387Y1005586D03*
G01*
X4855387Y1145286D03*
G01*
X5363387Y865886D03*
G01*
X5363387Y1005586D03*
G01*
X5363387Y1145286D03*
G01*
X3331387Y865886D03*
G01*
X3331387Y1005586D03*
G01*
X3331387Y1145286D03*
D14*
G01*
X4303903Y2406650D03*
G01*
X4533900Y2406650D03*
G01*
X4763896Y2406650D03*
D15*
G01*
X4533912Y2978150D03*
D16*
G01*
X6140450Y2475102D03*
G01*
X6140450Y2705100D03*
G01*
X6140450Y2935097D03*
D17*
G01*
X5568950Y2705087D03*
D16*
G01*
X6178550Y3872102D03*
G01*
X6178550Y4102100D03*
G01*
X6178550Y4332097D03*
D17*
G01*
X5607050Y4102087D03*
D14*
G01*
X3084703Y2432050D03*
G01*
X3314700Y2432050D03*
G01*
X3544696Y2432050D03*
D15*
G01*
X3314712Y3003550D03*
D14*
G01*
X4303903Y3524250D03*
G01*
X4533900Y3524250D03*
G01*
X4763896Y3524250D03*
D15*
G01*
X4533912Y4095750D03*
D14*
G01*
X3084703Y3536950D03*
G01*
X3314700Y3536950D03*
G01*
X3544696Y3536950D03*
D15*
G01*
X3314712Y4108450D03*
D18*
G01*
X2662148Y1968500D03*
G01*
X2662148Y2095500D03*
G01*
X2662148Y2222500D03*
G01*
X2662148Y2349500D03*
G01*
X2662148Y2476500D03*
G01*
X2662148Y2603500D03*
G01*
X2662148Y2730500D03*
G01*
X2662148Y2857500D03*
G01*
X2087651Y1968500D03*
G01*
X2087651Y2095500D03*
G01*
X2087651Y2222500D03*
G01*
X2087651Y2349500D03*
G01*
X2087651Y2476500D03*
G01*
X2087651Y2603500D03*
G01*
X2087651Y2730500D03*
G01*
X2087651Y2857500D03*
D19*
G01*
X7137400Y1511287D03*
G01*
X7137400Y2324087D03*
G01*
X7137400Y3136887D03*
D20*
G01*
X2400300Y4178300D03*
G01*
X2146300Y4178300D03*
G01*
X2146300Y3416300D03*
G01*
X2400300Y3416300D03*
G01*
X1892300Y4178300D03*
G01*
X1638300Y4178300D03*
G01*
X1892300Y3416300D03*
G01*
X1638300Y3416300D03*
D21*
G01*
X2308986Y1003287D03*
G01*
X2008987Y1003287D03*
M02*
