G04 Layer: TopPasteMaskLayer*
G04 EasyEDA v6.5.48, 2025-01-21 17:41:51*
G04 c25b6b3bb0ea45fba8c4304eea8249b9,6739810af5ca4796b4382bb4120ee57b,10*
G04 Gerber Generator version 0.2*
G04 Scale: 100 percent, Rotated: No, Reflected: No *
G04 Dimensions in millimeters *
G04 leading zeros omitted , absolute positions ,4 integer and 5 decimal *
%FSLAX45Y45*%
%MOMM*%

%AMMACRO1*21,1,$1,$2,0,0,$3*%
%ADD10R,0.8000X0.9000*%
%ADD11R,6.0000X2.0000*%
%ADD12R,1.0500X2.4650*%
%ADD13MACRO1,3.54X2.4648X0.0000*%
%ADD14MACRO1,1.05X2.4648X90.0000*%
%ADD15MACRO1,3.54X2.4648X-90.0000*%
%ADD16O,1.7450054X0.5599938*%
%ADD17R,2.0000X1.0000*%

%LPD*%
D10*
G01*
X5673979Y1970786D03*
G01*
X5533999Y1970786D03*
D11*
G01*
X1219200Y2312288D03*
G01*
X1219200Y2742311D03*
D12*
G01*
X4303902Y2406650D03*
G01*
X4533900Y2406650D03*
G01*
X4763897Y2406650D03*
D13*
G01*
X4533912Y2978150D03*
D14*
G01*
X6140450Y2475103D03*
G01*
X6140450Y2705100D03*
G01*
X6140450Y2935096D03*
D15*
G01*
X5568950Y2705087D03*
D14*
G01*
X6178550Y3872103D03*
G01*
X6178550Y4102100D03*
G01*
X6178550Y4332096D03*
D15*
G01*
X5607050Y4102087D03*
D12*
G01*
X3084702Y2432050D03*
G01*
X3314700Y2432050D03*
G01*
X3544697Y2432050D03*
D13*
G01*
X3314712Y3003550D03*
D12*
G01*
X4303902Y3524250D03*
G01*
X4533900Y3524250D03*
G01*
X4763897Y3524250D03*
D13*
G01*
X4533912Y4095750D03*
D12*
G01*
X3084702Y3536950D03*
G01*
X3314700Y3536950D03*
G01*
X3544697Y3536950D03*
D13*
G01*
X3314712Y4108450D03*
D16*
G01*
X2662148Y1968500D03*
G01*
X2662148Y2095500D03*
G01*
X2662148Y2222500D03*
G01*
X2662148Y2349500D03*
G01*
X2662148Y2476500D03*
G01*
X2662148Y2603500D03*
G01*
X2662148Y2730500D03*
G01*
X2662148Y2857500D03*
G01*
X2087651Y1968500D03*
G01*
X2087651Y2095500D03*
G01*
X2087651Y2222500D03*
G01*
X2087651Y2349500D03*
G01*
X2087651Y2476500D03*
G01*
X2087651Y2603500D03*
G01*
X2087651Y2730500D03*
G01*
X2087651Y2857500D03*
D17*
G01*
X2308986Y1003300D03*
G01*
X2008987Y1003300D03*
M02*
