G04 Layer: TopLayer*
G04 EasyEDA v6.5.48, 2025-01-21 17:41:51*
G04 c25b6b3bb0ea45fba8c4304eea8249b9,6739810af5ca4796b4382bb4120ee57b,10*
G04 Gerber Generator version 0.2*
G04 Scale: 100 percent, Rotated: No, Reflected: No *
G04 Dimensions in millimeters *
G04 leading zeros omitted , absolute positions ,4 integer and 5 decimal *
%FSLAX45Y45*%
%MOMM*%

%AMMACRO1*21,1,$1,$2,0,0,$3*%
%ADD10C,0.2032*%
%ADD11C,0.2540*%
%ADD12C,0.5800*%
%ADD13R,0.8000X0.9000*%
%ADD14R,6.0000X2.0000*%
%ADD15R,1.0500X2.4650*%
%ADD16MACRO1,3.54X2.465X0.0000*%
%ADD17MACRO1,1.05X2.465X90.0000*%
%ADD18MACRO1,3.54X2.465X-90.0000*%
%ADD19O,1.7450054X0.5599938*%
%ADD20R,2.0000X1.0000*%
%ADD21C,1.5240*%
%ADD22O,1.5999968X0.8999982*%
%ADD23R,4.0000X3.0000*%
%ADD24C,1.8000*%
%ADD25C,0.9000*%
%ADD26C,0.6100*%
%ADD27C,0.0179*%

%LPD*%
D10*
X7537450Y2373629D02*
G01*
X7518908Y2364486D01*
X7500365Y2345944D01*
X7491222Y2327655D01*
X7491222Y2290571D01*
X7500365Y2272029D01*
X7518908Y2253742D01*
X7537450Y2244344D01*
X7565136Y2235200D01*
X7611109Y2235200D01*
X7639050Y2244344D01*
X7657338Y2253742D01*
X7675879Y2272029D01*
X7685024Y2290571D01*
X7685024Y2327655D01*
X7675879Y2345944D01*
X7657338Y2364486D01*
X7639050Y2373629D01*
X7611109Y2373629D01*
X7611109Y2327655D02*
G01*
X7611109Y2373629D01*
X7478522Y1460500D02*
G01*
X7672324Y1460500D01*
X7478522Y1460500D02*
G01*
X7478522Y1543557D01*
X7487665Y1571244D01*
X7496809Y1580642D01*
X7515352Y1589786D01*
X7533893Y1589786D01*
X7552436Y1580642D01*
X7561579Y1571244D01*
X7570724Y1543557D01*
X7570724Y1460500D02*
G01*
X7570724Y1543557D01*
X7580122Y1571244D01*
X7589265Y1580642D01*
X7607808Y1589786D01*
X7635493Y1589786D01*
X7654036Y1580642D01*
X7663179Y1571244D01*
X7672324Y1543557D01*
X7672324Y1460500D01*
X7478522Y3073400D02*
G01*
X7672324Y3119628D01*
X7478522Y3165855D02*
G01*
X7672324Y3119628D01*
X7478522Y3165855D02*
G01*
X7672324Y3211829D01*
X7478522Y3258057D02*
G01*
X7672324Y3211829D01*
D11*
X2763090Y3292043D02*
G01*
X2856842Y3385794D01*
X3084705Y3385794D01*
D12*
X5386250Y2705100D02*
G01*
X5299687Y2705100D01*
X5568952Y2705100D02*
G01*
X5386250Y2705100D01*
X6140452Y2705100D02*
G01*
X5568952Y2705100D01*
X4770401Y3841724D02*
G01*
X4770401Y4252823D01*
X4200578Y4822647D01*
X3518105Y4822647D01*
X3006752Y5334000D01*
X2933702Y5334000D01*
X4763899Y3706952D02*
G01*
X4770401Y3713454D01*
X4770401Y3841724D01*
X4770401Y3841724D02*
G01*
X5277792Y3841724D01*
X4763899Y3524250D02*
G01*
X4763899Y3706952D01*
X3544699Y3628313D02*
G01*
X3785110Y3628313D01*
X3544699Y3628313D02*
G01*
X3544699Y3719652D01*
X3544699Y3536950D02*
G01*
X3544699Y3628313D01*
X1384302Y5270500D02*
G01*
X1960755Y4694046D01*
X3116734Y4694046D01*
X3568931Y4241850D01*
X3568931Y3743883D01*
X3544699Y3719652D01*
D11*
X2662151Y2603500D02*
G01*
X2922551Y2603500D01*
X3022119Y2703068D01*
X3071624Y2703068D01*
X3170405Y2604287D01*
X3170405Y2281580D01*
X3145868Y2257044D01*
X6140452Y2475103D02*
G01*
X5361282Y2475103D01*
X5322801Y2513584D01*
X6216042Y2475103D02*
G01*
X6140452Y2475103D01*
X6216042Y2475103D02*
G01*
X6291607Y2475103D01*
X2823390Y1005586D02*
G01*
X2849501Y1005586D01*
X3079828Y775258D01*
X4429635Y775258D01*
X4659962Y1005586D01*
X4855390Y1005586D01*
X6178552Y3872103D02*
G01*
X6027397Y3872103D01*
X6291607Y2475103D02*
G01*
X6306873Y2490368D01*
X6306873Y2780436D01*
X6286527Y2800781D01*
X6026101Y2800781D01*
X5974031Y2852851D01*
X5974031Y3818737D01*
X6027397Y3872103D01*
X3331390Y1005586D02*
G01*
X3362352Y1005586D01*
X3643657Y1286890D01*
X3643657Y1434693D01*
X3026310Y2222500D02*
G01*
X3026310Y1275334D01*
X3296058Y1005586D01*
X3331390Y1005586D01*
X4303905Y3675405D02*
G01*
X4211525Y3675405D01*
X4303905Y3524250D02*
G01*
X4303905Y3675405D01*
X3026310Y2222500D02*
G01*
X3084705Y2280894D01*
X2662151Y2222500D02*
G01*
X3026310Y2222500D01*
X3084705Y2432050D02*
G01*
X3084705Y2280894D01*
D12*
X3314702Y2432050D02*
G01*
X3314702Y1161973D01*
X3331390Y1145286D01*
X3314702Y3003550D02*
G01*
X3314702Y2432050D01*
X2146302Y5270500D02*
G01*
X2634287Y4782515D01*
X3410485Y4782515D01*
X4533902Y2406650D02*
G01*
X4533902Y1839798D01*
X3839390Y1145286D01*
X4533902Y2978150D02*
G01*
X4533902Y2406650D01*
D11*
X2544549Y2540000D02*
G01*
X2956105Y2540000D01*
X3052066Y2635961D01*
X2544549Y2540000D02*
G01*
X2544549Y1939493D01*
X2593037Y1891004D01*
X2725981Y1891004D01*
X2662151Y2730500D02*
G01*
X2650568Y2730500D01*
X2544549Y2624480D01*
X2544549Y2540000D01*
X3084705Y3536950D02*
G01*
X3084705Y3385794D01*
X4303905Y2406650D02*
G01*
X4303905Y2255494D01*
X3839390Y1005586D02*
G01*
X3808605Y1005586D01*
X3703474Y1110716D01*
X3703474Y1655063D01*
X4303905Y2255494D01*
X4347390Y1005586D02*
G01*
X3839390Y1005586D01*
D12*
X2309014Y1003274D02*
G01*
X2562379Y1256639D01*
X2853108Y1256639D01*
X2853108Y1256639D02*
G01*
X2853108Y1267663D01*
X2853108Y1256639D02*
G01*
X2897558Y1256639D01*
X3288311Y865886D01*
X3331390Y865886D01*
X5673981Y1970786D02*
G01*
X5673981Y2075256D01*
X4925367Y3341547D02*
G01*
X4925367Y2580411D01*
X5308348Y2197430D01*
X5673981Y2075256D02*
G01*
X5430522Y2075256D01*
X5308348Y2197430D01*
X4925367Y3341547D02*
G01*
X5424350Y3840530D01*
X5424350Y4102100D01*
X4533902Y3341547D02*
G01*
X4925367Y3341547D01*
X7137402Y1511300D02*
G01*
X6232933Y1511300D01*
X5773447Y1970786D01*
X5607052Y4102100D02*
G01*
X6178552Y4102100D01*
X5515714Y4102100D02*
G01*
X5607052Y4102100D01*
X5515714Y4102100D02*
G01*
X5424350Y4102100D01*
X4533902Y3363671D02*
G01*
X4533902Y3341547D01*
X4533902Y3524250D02*
G01*
X4533902Y3363671D01*
X4533902Y4095750D02*
G01*
X4533902Y3524250D01*
X3314702Y3536950D02*
G01*
X3314702Y3354247D01*
X3314702Y3354247D02*
G01*
X3327402Y3341547D01*
X4533902Y3341547D01*
X3078253Y4081881D02*
G01*
X3196694Y4081881D01*
X3314702Y3963873D01*
X3314702Y3536950D01*
X2146302Y4178300D02*
G01*
X2305255Y4019346D01*
X3015719Y4019346D01*
X3078253Y4081881D01*
X3078253Y4081881D02*
G01*
X3078253Y4108450D01*
X5673981Y1970786D02*
G01*
X5773447Y1970786D01*
X3314702Y4108450D02*
G01*
X3078253Y4108450D01*
X6178552Y4332096D02*
G01*
X5995850Y4332096D01*
X5995850Y4332096D02*
G01*
X4981247Y5346700D01*
X4445002Y5346700D01*
X2575181Y3063290D02*
G01*
X2711960Y3200069D01*
X3931262Y3200069D01*
X3962808Y3168522D01*
X3544699Y2614752D02*
G01*
X3962808Y3032861D01*
X3962808Y3168522D01*
X3962808Y3168522D02*
G01*
X4738855Y3168522D01*
X4770401Y3136976D01*
X4770401Y2321813D01*
X4763899Y2315311D01*
X3544699Y2432050D02*
G01*
X3544699Y2614752D01*
X4763899Y2315311D02*
G01*
X4763899Y2223947D01*
X4763899Y2406650D02*
G01*
X4763899Y2315311D01*
X2146302Y3416300D02*
G01*
X2499311Y3063290D01*
X2575181Y3063290D01*
X2575181Y3063290D02*
G01*
X2575181Y2944469D01*
X2662151Y2857500D01*
X4763899Y2223947D02*
G01*
X5017061Y1970786D01*
X5434510Y1970786D01*
X5258894Y1249781D02*
G01*
X4451885Y1249781D01*
X4347390Y1145286D01*
X5363390Y1145286D02*
G01*
X5258894Y1249781D01*
X5484243Y1970786D02*
G01*
X5484243Y1475130D01*
X5258894Y1249781D01*
X5484243Y1970786D02*
G01*
X5434510Y1970786D01*
X5533976Y1970786D02*
G01*
X5484243Y1970786D01*
X2087653Y2349500D02*
G01*
X2146607Y2349500D01*
X2379296Y2582189D01*
X2379296Y2641168D01*
X2595628Y2857500D01*
X2662151Y2857500D01*
X6140452Y2935096D02*
G01*
X6323154Y2935096D01*
X7137402Y3136900D02*
G01*
X6524957Y3136900D01*
X6323154Y2935096D01*
X2009015Y1003274D02*
G01*
X2119505Y892784D01*
X2440688Y892784D01*
X2693189Y1145286D01*
X2823390Y1145286D01*
D11*
X1219202Y2742311D02*
G01*
X1547116Y2742311D01*
X1638302Y4178300D02*
G01*
X1506095Y4046093D01*
X1506095Y2911246D01*
X1547116Y2870225D01*
X1547116Y2742311D01*
X2087653Y2222500D02*
G01*
X2064717Y2222500D01*
X1502996Y1660779D01*
X1502996Y1107186D01*
X1219202Y2312288D02*
G01*
X891288Y2312288D01*
X891288Y2312288D02*
G01*
X891288Y1218895D01*
X1002997Y1107186D01*
D13*
G01*
X5673979Y1970786D03*
G01*
X5533999Y1970786D03*
D14*
G01*
X1219200Y2312288D03*
G01*
X1219200Y2742311D03*
D15*
G01*
X4303902Y2406650D03*
G01*
X4533900Y2406650D03*
G01*
X4763897Y2406650D03*
D16*
G01*
X4533900Y2978150D03*
D17*
G01*
X6140450Y2475100D03*
G01*
X6140450Y2705100D03*
G01*
X6140450Y2935099D03*
D18*
G01*
X5568950Y2705100D03*
D17*
G01*
X6178550Y3872100D03*
G01*
X6178550Y4102100D03*
G01*
X6178550Y4332099D03*
D18*
G01*
X5607050Y4102100D03*
D15*
G01*
X3084702Y2432050D03*
G01*
X3314700Y2432050D03*
G01*
X3544697Y2432050D03*
D16*
G01*
X3314700Y3003550D03*
D15*
G01*
X4303902Y3524250D03*
G01*
X4533900Y3524250D03*
G01*
X4763897Y3524250D03*
D16*
G01*
X4533900Y4095750D03*
D15*
G01*
X3084702Y3536950D03*
G01*
X3314700Y3536950D03*
G01*
X3544697Y3536950D03*
D16*
G01*
X3314700Y4108450D03*
D19*
G01*
X2662148Y1968500D03*
G01*
X2662148Y2095500D03*
G01*
X2662148Y2222500D03*
G01*
X2662148Y2349500D03*
G01*
X2662148Y2476500D03*
G01*
X2662148Y2603500D03*
G01*
X2662148Y2730500D03*
G01*
X2662148Y2857500D03*
G01*
X2087651Y1968500D03*
G01*
X2087651Y2095500D03*
G01*
X2087651Y2222500D03*
G01*
X2087651Y2349500D03*
G01*
X2087651Y2476500D03*
G01*
X2087651Y2603500D03*
G01*
X2087651Y2730500D03*
G01*
X2087651Y2857500D03*
D20*
G01*
X2308986Y1003300D03*
G01*
X2008987Y1003300D03*
D21*
G01*
X1002995Y1107186D03*
G01*
X1502994Y1107186D03*
G01*
X4445000Y5346700D03*
G01*
X5207000Y5346700D03*
G01*
X2933700Y5334000D03*
G01*
X3695700Y5334000D03*
G01*
X1384300Y5270500D03*
G01*
X2146300Y5270500D03*
D22*
G01*
X2823387Y865886D03*
G01*
X2823387Y1005586D03*
G01*
X2823387Y1145286D03*
G01*
X3839387Y865886D03*
G01*
X3839387Y1005586D03*
G01*
X3839387Y1145286D03*
G01*
X4347387Y865886D03*
G01*
X4347387Y1005586D03*
G01*
X4347387Y1145286D03*
G01*
X4855387Y865886D03*
G01*
X4855387Y1005586D03*
G01*
X4855387Y1145286D03*
G01*
X5363387Y865886D03*
G01*
X5363387Y1005586D03*
G01*
X5363387Y1145286D03*
G01*
X3331387Y865886D03*
G01*
X3331387Y1005586D03*
G01*
X3331387Y1145286D03*
D23*
G01*
X7137400Y1511300D03*
G01*
X7137400Y2324100D03*
G01*
X7137400Y3136900D03*
D24*
G01*
X2400300Y4178300D03*
G01*
X2146300Y4178300D03*
G01*
X2146300Y3416300D03*
G01*
X2400300Y3416300D03*
G01*
X1892300Y4178300D03*
G01*
X1638300Y4178300D03*
G01*
X1892300Y3416300D03*
G01*
X1638300Y3416300D03*
D25*
G01*
X5299684Y2705100D03*
G01*
X5277789Y3841724D03*
G01*
X3785108Y3628313D03*
D26*
G01*
X3145866Y2257044D03*
G01*
X5322798Y2513584D03*
G01*
X3643655Y1434693D03*
G01*
X4211523Y3675405D03*
D25*
G01*
X3410483Y4782515D03*
D26*
G01*
X3052063Y2635961D03*
G01*
X2763088Y3292043D03*
G01*
X2725978Y1891004D03*
D25*
G01*
X2853105Y1267663D03*
G01*
X5308345Y2197430D03*
M02*
